<mxfile host="app.diagrams.net" agent="Mozilla/5.0 (Macintosh; Intel Mac OS X 10_15_7) AppleWebKit/605.1.15 (KHTML, like Gecko) Version/17.5 Safari/605.1.15" version="24.7.5">
  <diagram name="Page-1" id="qHie082a5cEye1tV1nNR">
    <mxGraphModel dx="1280" dy="798" grid="0" gridSize="10" guides="1" tooltips="1" connect="1" arrows="1" fold="1" page="0" pageScale="1" pageWidth="827" pageHeight="1169" math="0" shadow="0">
      <root>
        <mxCell id="0" />
        <mxCell id="1" parent="0" />
        <mxCell id="ma-uwO6BuDiFPGGPyPgv-34" value="" style="edgeStyle=none;curved=1;rounded=0;orthogonalLoop=1;jettySize=auto;html=1;fontSize=12;startSize=8;endSize=8;" edge="1" parent="1" source="ma-uwO6BuDiFPGGPyPgv-16" target="ma-uwO6BuDiFPGGPyPgv-2">
          <mxGeometry relative="1" as="geometry" />
        </mxCell>
        <mxCell id="YHbYcHCBXBletzS5WVZL-3" value="smart-vac-gauge" style="sketch=0;outlineConnect=0;fontColor=#232F3E;gradientColor=none;fillColor=#7AA116;strokeColor=none;dashed=0;verticalLabelPosition=bottom;verticalAlign=top;align=center;html=1;fontSize=12;fontStyle=0;aspect=fixed;pointerEvents=1;shape=mxgraph.aws4.iot_greengrass_protocol;" parent="1" vertex="1">
          <mxGeometry x="-21" y="228" width="78" height="78" as="geometry" />
        </mxCell>
        <mxCell id="ma-uwO6BuDiFPGGPyPgv-22" value="HTTPS: firmware downloads" style="edgeStyle=none;curved=1;rounded=0;orthogonalLoop=1;jettySize=auto;html=1;fontSize=12;startSize=8;endSize=8;" edge="1" parent="1" source="ma-uwO6BuDiFPGGPyPgv-1" target="YHbYcHCBXBletzS5WVZL-3">
          <mxGeometry relative="1" as="geometry" />
        </mxCell>
        <mxCell id="ma-uwO6BuDiFPGGPyPgv-1" value="Cloud Front" style="sketch=0;outlineConnect=0;fontColor=#232F3E;gradientColor=none;fillColor=#7AA116;strokeColor=none;dashed=0;verticalLabelPosition=bottom;verticalAlign=top;align=center;html=1;fontSize=12;fontStyle=0;aspect=fixed;pointerEvents=1;shape=mxgraph.aws4.iot_over_the_air_update;" vertex="1" parent="1">
          <mxGeometry x="335" y="153" width="79" height="63.81" as="geometry" />
        </mxCell>
        <mxCell id="ma-uwO6BuDiFPGGPyPgv-23" value="" style="edgeStyle=none;curved=1;rounded=0;orthogonalLoop=1;jettySize=auto;html=1;fontSize=12;startSize=8;endSize=8;" edge="1" parent="1" source="ma-uwO6BuDiFPGGPyPgv-2" target="YHbYcHCBXBletzS5WVZL-3">
          <mxGeometry relative="1" as="geometry" />
        </mxCell>
        <mxCell id="ma-uwO6BuDiFPGGPyPgv-3" value="" style="sketch=0;outlineConnect=0;fontColor=#232F3E;gradientColor=none;fillColor=#7AA116;strokeColor=none;dashed=0;verticalLabelPosition=bottom;verticalAlign=top;align=center;html=1;fontSize=12;fontStyle=0;aspect=fixed;pointerEvents=1;shape=mxgraph.aws4.http_protocol;" vertex="1" parent="1">
          <mxGeometry x="395" y="122" width="44" height="44" as="geometry" />
        </mxCell>
        <mxCell id="ma-uwO6BuDiFPGGPyPgv-32" value="" style="edgeStyle=none;curved=1;rounded=0;orthogonalLoop=1;jettySize=auto;html=1;fontSize=12;startSize=8;endSize=8;" edge="1" parent="1" source="ma-uwO6BuDiFPGGPyPgv-5" target="ma-uwO6BuDiFPGGPyPgv-1">
          <mxGeometry relative="1" as="geometry" />
        </mxCell>
        <mxCell id="ma-uwO6BuDiFPGGPyPgv-5" value="dbc-firmware&lt;div&gt;&lt;br&gt;&lt;/div&gt;&lt;div&gt;/smart-vac-gauge/&amp;lt;build&amp;gt;/m[74].ota&lt;/div&gt;" style="sketch=0;outlineConnect=0;fontColor=#232F3E;gradientColor=none;fillColor=#7AA116;strokeColor=none;dashed=0;verticalLabelPosition=bottom;verticalAlign=top;align=center;html=1;fontSize=12;fontStyle=0;aspect=fixed;pointerEvents=1;shape=mxgraph.aws4.bucket;" vertex="1" parent="1">
          <mxGeometry x="593" y="145.9" width="75" height="78" as="geometry" />
        </mxCell>
        <mxCell id="ma-uwO6BuDiFPGGPyPgv-24" value="" style="edgeStyle=none;curved=1;rounded=0;orthogonalLoop=1;jettySize=auto;html=1;fontSize=12;startSize=8;endSize=8;" edge="1" parent="1" source="ma-uwO6BuDiFPGGPyPgv-8" target="YHbYcHCBXBletzS5WVZL-3">
          <mxGeometry relative="1" as="geometry" />
        </mxCell>
        <mxCell id="ma-uwO6BuDiFPGGPyPgv-14" value="update-evaiilable" style="sketch=0;outlineConnect=0;fontColor=#232F3E;gradientColor=none;fillColor=#7AA116;strokeColor=none;dashed=0;verticalLabelPosition=bottom;verticalAlign=top;align=center;html=1;fontSize=12;fontStyle=0;aspect=fixed;pointerEvents=1;shape=mxgraph.aws4.iot_greengrass_recipe;" vertex="1" parent="1">
          <mxGeometry x="133" y="370" width="35" height="49.64" as="geometry" />
        </mxCell>
        <mxCell id="ma-uwO6BuDiFPGGPyPgv-26" value="" style="edgeStyle=none;curved=1;rounded=0;orthogonalLoop=1;jettySize=auto;html=1;fontSize=12;startSize=8;endSize=8;" edge="1" parent="1" source="ma-uwO6BuDiFPGGPyPgv-15" target="YHbYcHCBXBletzS5WVZL-3">
          <mxGeometry relative="1" as="geometry" />
        </mxCell>
        <mxCell id="ma-uwO6BuDiFPGGPyPgv-15" value="Identity stored&lt;div&gt;In onboard&lt;/div&gt;&lt;div&gt;secure vault&lt;/div&gt;" style="sketch=0;outlineConnect=0;fontColor=#232F3E;gradientColor=none;fillColor=#DD344C;strokeColor=none;dashed=0;verticalLabelPosition=bottom;verticalAlign=top;align=center;html=1;fontSize=12;fontStyle=0;aspect=fixed;pointerEvents=1;shape=mxgraph.aws4.sts;" vertex="1" parent="1">
          <mxGeometry x="-132" y="153" width="43.65" height="27.97" as="geometry" />
        </mxCell>
        <mxCell id="ma-uwO6BuDiFPGGPyPgv-33" value="" style="edgeStyle=none;curved=1;rounded=0;orthogonalLoop=1;jettySize=auto;html=1;fontSize=12;startSize=8;endSize=8;" edge="1" parent="1" source="ma-uwO6BuDiFPGGPyPgv-16" target="ma-uwO6BuDiFPGGPyPgv-8">
          <mxGeometry relative="1" as="geometry" />
        </mxCell>
        <mxCell id="ma-uwO6BuDiFPGGPyPgv-16" value="Authentication via&lt;div&gt;AWS IoT Registered device certificates&lt;/div&gt;" style="sketch=0;outlineConnect=0;fontColor=#232F3E;gradientColor=none;fillColor=#DD344C;strokeColor=none;dashed=0;verticalLabelPosition=bottom;verticalAlign=top;align=center;html=1;fontSize=12;fontStyle=0;aspect=fixed;pointerEvents=1;shape=mxgraph.aws4.key_management_service_external_key_store;" vertex="1" parent="1">
          <mxGeometry x="13" y="711" width="78" height="78" as="geometry" />
        </mxCell>
        <mxCell id="ma-uwO6BuDiFPGGPyPgv-2" value="/dbc/serial-number/ota" style="sketch=0;outlineConnect=0;fontColor=#232F3E;gradientColor=none;fillColor=#7AA116;strokeColor=none;dashed=0;verticalLabelPosition=bottom;verticalAlign=top;align=center;html=1;fontSize=12;fontStyle=0;aspect=fixed;pointerEvents=1;shape=mxgraph.aws4.mqtt_protocol;" vertex="1" parent="1">
          <mxGeometry x="102" y="514" width="83" height="83" as="geometry" />
        </mxCell>
        <mxCell id="ma-uwO6BuDiFPGGPyPgv-8" value="/dbc/global/announcements" style="sketch=0;outlineConnect=0;fontColor=#232F3E;gradientColor=none;fillColor=#7AA116;strokeColor=none;dashed=0;verticalLabelPosition=bottom;verticalAlign=top;align=center;html=1;fontSize=12;fontStyle=0;aspect=fixed;pointerEvents=1;shape=mxgraph.aws4.mqtt_protocol;" vertex="1" parent="1">
          <mxGeometry x="-113" y="514" width="78" height="78" as="geometry" />
        </mxCell>
      </root>
    </mxGraphModel>
  </diagram>
</mxfile>
